<svg xmlns="http://www.w3.org/2000/svg" viewBox="0 0 170 170" width="170" height="170">
  <path fill="#000" d="M150.37 130.25c-2.45 5.66-5.35 10.87-8.71 15.66-4.58 6.53-8.33 11.05-11.22 13.56-4.48 4.12-9.28 6.23-14.42 6.35-3.69 0-8.14-1.05-13.32-3.18-5.197-2.12-9.973-3.17-14.34-3.17-4.58 0-9.492 1.05-14.746 3.17-5.262 2.13-9.501 3.24-12.742 3.35-4.929.21-9.842-1.96-14.746-6.52-3.13-2.73-7.045-7.41-11.735-14.04-5.032-7.08-9.169-15.29-12.41-24.65-3.471-10.11-5.211-19.9-5.211-29.378 0-10.857 2.346-20.221 7.045-28.068 3.693-6.303 8.606-11.275 14.755-14.925s12.793-5.51 19.948-5.629c3.915 0 9.049 1.211 15.429 3.591 6.362 2.388 10.443 3.599 12.227 3.599 1.334 0 5.868-1.416 13.565-4.239 7.28-2.618 13.423-3.702 18.444-3.275 13.602 1.098 23.82 6.463 30.61 16.128-12.172 7.376-18.193 17.707-18.07 30.972.102 10.333 3.852 18.933 11.24 25.76 3.349 3.177 7.089 5.632 11.254 7.374-.906 2.627-1.866 5.132-2.888 7.527zM119.11 7.24c0 8.102-2.96 15.667-8.86 22.669-7.12 8.324-15.732 13.134-25.071 12.375a25.222 25.222 0 0 1-.188-3.07c0-7.778 3.386-16.102 9.399-22.908 3.002-3.446 6.82-6.311 11.45-8.597 4.62-2.252 8.99-3.497 13.1-3.71.12 1.083.17 2.166.17 3.24z"/>
</svg>
