<svg xmlns="http://www.w3.org/2000/svg" viewBox="0 0 36 36" width="36" height="36">
  <path fill="#1877F2" d="M36 18C36 8.059 27.941 0 18 0S0 8.059 0 18c0 8.985 6.583 16.433 15.188 17.781V23.203h-4.57V18h4.57v-3.966c0-4.511 2.688-7.003 6.799-7.003 1.97 0 4.031.352 4.031.352v4.43h-2.27c-2.236 0-2.935 1.388-2.935 2.812V18h4.992l-.798 5.203h-4.194v12.578C29.417 34.433 36 26.985 36 18Z"/>
  <path fill="#FFF" d="m25.003 23.203.798-5.203h-4.992v-3.375c0-1.423.697-2.812 2.934-2.812h2.27V7.383s-2.06-.352-4.03-.352c-4.111 0-6.8 2.492-6.8 7.003V18h-4.57v5.203h4.57v12.578c.918.143 1.858.219 2.813.219s1.895-.076 2.813-.219V23.203h4.19Z"/>
</svg>
